Coordinates
version=1
nRows=26
nColumns=22
inDegrees=yes

Units are S.I. units (second, meters, Newtons, ...)
If the header above contains a line with 'inDegrees', this indicates whether rotational values are in degrees (yes) or radians (no).

endheader
time	pelvis_tilt	pelvis_list	pelvis_rotation	pelvis_tx	pelvis_ty	pelvis_tz	hip_flexion_r	hip_adduction_r	hip_rotation_r	knee_angle_r	ankle_angle_r	subtalar_angle_r	hip_flexion_l	hip_adduction_l	hip_rotation_l	knee_angle_l	ankle_angle_l	subtalar_angle_l	lumbar_extension	lumbar_bending	lumbar_rotation
      0.01000000	     -4.89063357	      2.67945213	    176.77574088	     -1.36386776	      1.02628913	     -0.15479389	      0.62196740	      5.11970008	      0.72744721	    -19.73988642	     12.68094690	     -2.56408392	     -0.85661949	     -1.15077425	     -6.69124972	    -16.02896939	     12.61096431	     -2.66626887	    -13.42345953	      2.32515562	      3.32737443
      0.02000000	     -4.88838623	      2.68318533	    176.78817726	     -1.36383702	      1.02629814	     -0.15479108	      0.60727473	      5.12388791	      0.71902513	    -19.70137660	     12.68657392	     -2.56005326	     -0.85353205	     -1.15668434	     -6.69138780	    -16.02451130	     12.61918417	     -2.66572599	    -13.40276834	      2.31799479	      3.33966838
      0.03000000	     -4.88621843	      2.68940712	    176.80303538	     -1.36379848	      1.02631011	     -0.15479314	      0.59171532	      5.13107436	      0.70825465	    -19.66186602	     12.69150362	     -2.55607878	     -0.85279457	     -1.16571616	     -6.68503020	    -16.01430192	     12.62056063	     -2.66418214	    -13.37948307	      2.31101176	      3.34959975
      0.04000000	     -4.88468953	      2.69667082	    176.81875134	     -1.36375467	      1.02632810	     -0.15479634	      0.57655357	      5.13957814	      0.69417847	    -19.62545934	     12.69182115	     -2.55225544	     -0.85478888	     -1.17536175	     -6.67469273	    -15.99964631	     12.61789424	     -2.66220785	    -13.35611859	      2.30334566	      3.35887833
      0.05000000	     -4.89097076	      2.71063671	    176.84298060	     -1.36370166	      1.02636523	     -0.15479447	      0.55458378	      5.15517996	      0.66869569	    -19.59257568	     12.67117683	     -2.54299883	     -0.86880580	     -1.19060656	     -6.63774163	    -15.97638128	     12.60499273	     -2.65727451	    -13.34304776	      2.30338103	      3.35289161
      0.06000000	     -4.89230660	      2.71408403	    176.85318898	     -1.36364389	      1.02638742	     -0.15481385	      0.54402055	      5.15981239	      0.65294832	    -19.57150145	     12.66814298	     -2.54101470	     -0.87415666	     -1.19685172	     -6.63747942	    -15.96053805	     12.60279857	     -2.65702441	    -13.32447392	      2.28716928	      3.36434435
      0.07000000	     -4.89640963	      2.71862482	    176.85900490	     -1.36355340	      1.02640777	     -0.15485753	      0.54220302	      5.16859489	      0.64914314	    -19.57106540	     12.66594705	     -2.54049195	     -0.87683858	     -1.20549798	     -6.63670917	    -15.95452951	     12.60122221	     -2.65702331	    -13.31621558	      2.26847185	      3.36619400
      0.08000000	     -4.90336587	      2.72256970	    176.86633618	     -1.36349120	      1.02645284	     -0.15488515	      0.53216959	      5.17209597	      0.62043133	    -19.56056615	     12.62402533	     -2.53621831	     -0.90367974	     -1.20859644	     -6.61769849	    -15.90875265	     12.57148120	     -2.65620522	    -13.30756096	      2.25265297	      3.37955448
      0.09000000	     -4.90671159	      2.72696984	    176.87034859	     -1.36338337	      1.02647156	     -0.15494329	      0.53357458	      5.18181920	      0.61751602	    -19.56114275	     12.62244041	     -2.53590000	     -0.90562461	     -1.21766085	     -6.61847107	    -15.90183813	     12.57061681	     -2.65633131	    -13.30442524	      2.23260078	      3.37877643
      0.10000000	     -4.91384831	      2.72668018	    176.86654536	     -1.36328832	      1.02650764	     -0.15501100	      0.53666576	      5.18317167	      0.59982385	    -19.57103810	     12.58724069	     -2.53433873	     -0.92997314	     -1.21871349	     -6.61878999	    -15.85989581	     12.54637999	     -2.65567724	    -13.30339039	      2.20761495	      3.38775511
      0.11000000	     -4.91638455	      2.73083842	    176.86928949	     -1.36315289	      1.02652287	     -0.15508578	      0.54236628	      5.19318032	      0.59842603	    -19.57199953	     12.58573133	     -2.53417838	     -0.93014429	     -1.22893613	     -6.61965647	    -15.85138157	     12.54536532	     -2.65569128	    -13.30647231	      2.18646516	      3.38512762
      0.12000000	     -4.92028824	      2.73322195	    176.86281037	     -1.36301491	      1.02653848	     -0.15517672	      0.56137893	      5.20080265	      0.59579532	    -19.60007917	     12.56623976	     -2.53455422	     -0.94495654	     -1.23555292	     -6.62558009	    -15.81703840	     12.53252407	     -2.65434866	    -13.30999935	      2.16473612	      3.37771459
      0.13000000	     -4.92210156	      2.73627780	    176.86174081	     -1.36285677	      1.02654889	     -0.15527053	      0.56939654	      5.21001657	      0.59398037	    -19.59922429	     12.56418143	     -2.53443391	     -0.94315546	     -1.24524893	     -6.62577638	    -15.80799634	     12.53050663	     -2.65422402	    -13.31670293	      2.14214964	      3.37625370
      0.14000000	     -4.92306362	      2.72421488	    176.83675176	     -1.36269237	      1.02656294	     -0.15539555	      0.59977447	      5.20163076	      0.59940282	    -19.63667012	     12.53426198	     -2.53762589	     -0.95818119	     -1.23549393	     -6.63959200	    -15.76587075	     12.49545463	     -2.65053300	    -13.32123375	      2.09929503	      3.39362542
      0.15000000	     -4.92582424	      2.72643421	    176.82871160	     -1.36252260	      1.02657149	     -0.15550761	      0.61931705	      5.21118132	      0.60403544	    -19.65887555	     12.52932257	     -2.53956056	     -0.96311479	     -1.24471640	     -6.64713694	    -15.74569994	     12.48909060	     -2.64914987	    -13.32959034	      2.07760005	      3.38743130
      0.16000000	     -4.92778763	      2.72632115	    176.81382004	     -1.36234755	      1.02658023	     -0.15562850	      0.64300856	      5.21711197	      0.60711542	    -19.68620371	     12.51733581	     -2.54171985	     -0.96889840	     -1.25078214	     -6.65795662	    -15.72217504	     12.47901842	     -2.64671400	    -13.33730236	      2.05243552	      3.39120565
      0.17000000	     -4.92862654	      2.72402475	    176.79628358	     -1.36217470	      1.02658927	     -0.15575417	      0.66707037	      5.22074174	      0.61217211	    -19.71166398	     12.50440636	     -2.54436838	     -0.97372708	     -1.25450973	     -6.67262181	    -15.69806501	     12.46705831	     -2.64327838	    -13.34261342	      2.02573618	      3.39985879
      0.18000000	     -4.92794520	      2.71928899	    176.77589484	     -1.36200209	      1.02659620	     -0.15587966	      0.69306228	      5.22166984	      0.62130016	    -19.73672530	     12.49282985	     -2.54836828	     -0.97801667	     -1.25556720	     -6.69153265	    -15.67179772	     12.45260508	     -2.63805015	    -13.34602503	      1.99823474	      3.41287618
      0.19000000	     -4.93074190	      2.72032542	    176.77364110	     -1.36184354	      1.02660570	     -0.15598643	      0.70064441	      5.22901226	      0.62059678	    -19.73496874	     12.49267991	     -2.54862353	     -0.97583009	     -1.26450594	     -6.69261583	    -15.66494287	     12.45148311	     -2.63754153	    -13.35042210	      1.98045460	      3.41215081
      0.20000000	     -4.92769160	      2.70474103	    176.74336642	     -1.36169768	      1.02660901	     -0.15613126	      0.73293739	      5.21856503	      0.63831446	    -19.76776602	     12.48516578	     -2.55863899	     -0.98393599	     -1.25352189	     -6.72099105	    -15.63116484	     12.42176145	     -2.62388673	    -13.34269923	      1.93971411	      3.44129476
      0.21000000	     -4.93176197	      2.70529041	    176.74492301	     -1.36154773	      1.02661983	     -0.15623924	      0.74025588	      5.22616368	      0.63795154	    -19.76770588	     12.48579469	     -2.55901326	     -0.98292128	     -1.26276213	     -6.72187985	    -15.62454670	     12.42108073	     -2.62325367	    -13.34556155	      1.92438353	      3.43885526
      0.22000000	     -4.93653147	      2.70531865	    176.74733013	     -1.36140443	      1.02663251	     -0.15635335	      0.74853856	      5.23397272	      0.63726665	    -19.77155062	     12.48596905	     -2.55960210	     -0.98389552	     -1.27191570	     -6.72302091	    -15.61653654	     12.41899350	     -2.62208834	    -13.34690635	      1.90839947	      3.43609566
      0.23000000	     -4.94249218	      2.70022021	    176.74545932	     -1.36126017	      1.02664561	     -0.15646092	      0.77253604	      5.23493732	      0.63269238	    -19.80797669	     12.48495765	     -2.56428414	     -0.99514835	     -1.27302198	     -6.72609957	    -15.59035213	     12.40015485	     -2.61171228	    -13.34831644	      1.89222623	      3.42647264
      0.24000000	     -4.94683996	      2.69784488	    176.75064700	     -1.36110128	      1.02666078	     -0.15657855	      0.78042322	      5.24063971	      0.63053686	    -19.80741223	     12.48532881	     -2.56470597	     -0.99290451	     -1.28063230	     -6.72600069	    -15.58385146	     12.39738955	     -2.60986320	    -13.35231979	      1.87624749	      3.42636767
      0.25000000	     -4.94887835	      2.66788871	    176.76346449	     -1.36093164	      1.02667391	     -0.15667335	      0.81325247	      5.21264715	      0.58841588	    -19.84680283	     12.48787295	     -2.57482921	     -0.99160166	     -1.25497559	     -6.70324530	    -15.56268258	     12.34360784	     -2.56324468	    -13.35157556	      1.83243749	      3.41191542
      0.26000000	     -4.95541047	      2.66532430	    176.77765857	     -1.36074793	      1.02669112	     -0.15679091	      0.83347955	      5.22053246	      0.58270064	    -19.87472515	     12.48524448	     -2.57702943	     -0.98934439	     -1.26321649	     -6.69535744	    -15.55505245	     12.33664996	     -2.55014300	    -13.36196406	      1.82131441	      3.39492781
